<svg xmlns="http://www.w3.org/2000/svg" viewBox="0 0 300 300"><title>Artboard 1</title><path d="M80.62,150.68c-9-.35-14.31,3.38-16.51,12-3.61,14.14-.91,27.16,8.08,38.62,2.33,3,5.72,5.09,8.72,8.62-2.82-.29-5.81-.09-8.44-1C51.71,202,40.15,171.52,51,152.6c6.52-11.38,13.35-14,28.88-10.34-.75-4.18-1.07-8.15-2.2-11.88-2.94-9.69-1.15-15.81,7-22,10.58-8.06,23.14-11.33,35.81-13.5,11.12-1.9,22.51-2.35,33.81-3,3.12-.17,4.71-.74,5.57-3.85.95-3.48,1.85-6.87-1.6-9.26a20.84,20.84,0,0,0-6.8-2.82c-14.12-3.55-28.29-6.9-42.41-10.44-4.15-1-7.81-3-9.86-7.13-4.43-9,.46-18.86,10.51-19.65,8.31-.65,16.74,0,25.1.33,8.69.31,17.37,1,26.06,1.3,12,.35,21.68-4.75,29.13-14a78.83,78.83,0,0,0,7.4-11.25c2.58-4.61,2-6.19-2.56-9.15-1.17-.76-2.44-1.35-3.64-2.06-1-.56-1.92-1.18-3.65-2.25,9.07.61,17.61,6.87,18.89,14.36A73.84,73.84,0,0,1,207.1,35c-.65,7.19-6,11.25-12.59,12.74-12.81,2.92-25.79,5.17-38.69,7.69l-1.36.27-.13.71c3.2.58,6.39,1.24,9.6,1.72,9.27,1.37,16.25,6.64,22.31,13.29,3.72,4.08,4,8.92,1.86,13.91-1.1,2.54-2.35,5-3.56,7.56,8.16,1.86,16.33,3.35,24.27,5.62,9.59,2.75,18.87,6.35,25.41,14.61a11.69,11.69,0,0,1,2.58,10.39q-6.88,31.1-13.58,62.24c-2.42,11.21-4.86,22.43-7.08,33.68-1.48,7.47-6.15,12.38-12.27,16.16-10.65,6.58-22.48,9.55-34.78,10.94A123.26,123.26,0,0,1,118.92,242c-9.78-3-17.62-9-25.65-14.8-1-.73-1.39-2.66-1.6-4.09q-5.31-35.68-10.5-71.37A4.68,4.68,0,0,0,80.62,150.68Zm19.48-5a40.83,40.83,0,0,0,0,4.2c2.26,20,4.72,40.07,6.71,60.14.49,4.91,3.34,6.34,7.15,7.69,16.87,6,34.22,7.26,51.86,5.28a88.26,88.26,0,0,0,30.64-8.93,8.83,8.83,0,0,0,5-6.66c3.64-17,7.5-33.89,11.25-50.84,1.08-4.9,2-9.82,3.17-15.35L197.46,148c2.09-3.25,4.66-5.43,7-7.83,7.69-7.85,6.9-13.62-2.51-19.36s-20-7.17-30.64-8.54c-1.7-.22-3.32-1.11-5.62-1.91-6.08,3.93-12,10-21.9,11.73,1.3-4.22,2.21-7.17,3.21-10.39-2.76.25-5.21.39-7.64.7-11.13,1.45-22.16,3.32-31.61,9.94-7.22,5.06-7.79,12.49-1.67,19,1.75,1.85,3.68,3.53,5.53,5.29l-.37.83Z" style="fill:#fff"/><path d="M47.69,196.65c-2.44,2.14-5,3.91-7,6.17-9.8,11.21-13.37,30.3,1.84,43.68C56.69,258.93,73.72,264.94,91.51,269c42.75,9.78,85.38,9.11,127.34-4a121.86,121.86,0,0,0,28.74-13.91c26.46-16.94,17.23-44.67-2.44-55.79l-5.09-2.87c.16-.39.32-.78.49-1.17,2.93,1.07,5.94,1.94,8.77,3.24,13.14,6,25.33,13.23,32.82,26.34,8.34,14.57,5.5,30.93-7,42.16-14.73,13.27-32.47,20.38-51.17,25.5-39.71,10.87-80,11.89-120.49,5.84C81,291,59,285.28,39.33,273.44a84,84,0,0,1-18.24-15c-9.75-10.6-10.63-25.57-3.33-38.07,6.68-11.45,16.71-18.94,28.7-24.09C46.67,196.23,47,196.47,47.69,196.65Z" style="fill:#fff"/><path d="M134.73,119.37c-2.67,5.7.53,7.22,3.9,8.41,12.23,4.3,24.83,4.7,37.58,3.34,1.77-.19,3.55-.24,6.68-.44-5.18,4.54-10.31,5.28-15.36,6.16-13.63,2.37-27.14,2-40.38-2.19-3.12-1-7.16-1.8-7.38-6-.23-4.51,4-5.42,7.12-6.82C129,120.94,131.27,120.45,134.73,119.37Z" style="fill:#fff"/><text transform="translate(108.6 191.49) scale(0.84 1)" style="font-size:30.154296875px;fill:#fff;font-family:CLoisterOpti-Black, CLoisterOpti;letter-spacing:-0.044009602870315565em">Est.1968</text></svg>