<svg xmlns="http://www.w3.org/2000/svg" xmlns:xlink="http://www.w3.org/1999/xlink" viewBox="0 0 1130 479.98"><defs><clipPath id="a"><rect x="-1.77" y="1" width="1134.27" height="479.98" style="fill:none"/></clipPath></defs><title>Artboard 3</title><g style="clip-path:url(#a)"><path d="M43.4,212.35c.82-2.08,4.39-3.17,7.28-3.29,7.58-.32,11.77-4.39,12.64-12,.47-4.13,1.3-8.22,1.74-12.35,1.19-11.29,4.72-22.28,4.35-33.79-.12-3.53.6-7-5-6.15a2.73,2.73,0,0,1-3.22-3.16c.29-2.24,2.25-1.69,3.67-1.73,3.27-.08,6.55,0,9.83,0,1.48,0,3.23.33,3.31-2.07.08-2.24-1.43-2.44-3-2.48-3.47-.09-7-.09-10.41-.2-1.56,0-3.25-.13-3.4-2.26-.17-2.37,1.72-1.94,3.15-2.32,1.88-.5,5.28.94,4.79-3.07s1.94-4.09,4.61-3.74c4.17.55,5.2-1.43,5.34-5.22q1.86-49.83,4-99.65c.15-3.66.51-7.31.82-11.56,2.23,1.82,1.67,3.45,1.69,4.88q.22,23.07.37,46.15c.14,20-.07,40,.62,60,.16,4.85-.94,12.34,8,12.48,1.12,0,1.45,1.09,1.42,2.13s-.46,1.88-1.62,2c-1.54.13-3.08.23-4.62.25-1.71,0-3.06.34-3.19,2.41-.15,2.38,1.48,2.27,3.07,2.28,1.15,0,2.31,0,3.47,0,4,.09,3.69,3.26,1.94,4.48-2.78,2-2,4.25-2.1,6.54-.27,14.15,2.7,28,5.13,41.75,1.31,7.48,2.45,15.53,12.73,16.19,1.14.07,3.87.9,4,2,.52,3.57,3.75,4.63,6.69,5.16,4.4.8,4.91,4.91,5,7.31.32,8.76.39,8.76,9.39,8.82a12.49,12.49,0,0,0,1.73,0c3.05-.42,4.12.91,3.93,3.91-.17,2.67-.86,7.07.35,7.75,5.2,2.91,2.65,7.33,3,11a72.61,72.61,0,0,1,0,13.83c-.54,5.21,1.4,7.13,6.39,6.17,5.55-1.07,6.59,1.65,6.53,6.55-.23,18.85-.14,37.7-.1,56.55,0,1.84-.83,5,.83,5.29,5,.88,3.39,4.37,3.42,7,.18,19.61.39,39.23.21,58.85,0,4.57,2.33,4.16,5.35,4.3,3.28.14,5-.46,4.74-4.32-.34-5,.11-10-.14-15-.18-3.59.74-5.75,4.72-5,6.31,1.25,10.09-1.76,12.87-7,1.07-2,2.63-3.79,3.78-5.77,1.69-2.93,3.9-4.19,7.48-4.06,7.9.28,15.9.79,23.7-.14,8.7-1,13.83,2.48,17.34,9.78,2.42,5.05,5.87,8.36,12.14,7.25,3.85-.69,5,1.4,4.8,5-.25,4.61-.08,9.23,0,13.85,0,2.68-.4,5.48,3.94,5.34s3-3.19,3-5.34c.08-21,.17-41.93,0-62.89,0-4.4,1-5.95,5.71-5.87q26.32.47,52.65.05c4.81-.08,6.19,1.08,6.13,5.95-.28,20,0,40-.21,60,0,4.18,1.75,4.91,5.17,4.46,3.82-.5,2.32-3.49,2.32-5.41.11-27.32.25-54.63-.07-81.94-.06-5.54,1.74-6.65,6.81-6.52,12.72.33,25.47.37,38.19,0,5.41-.16,7.21,1.14,7.16,6.87-.28,33.47-.15,66.93-.15,100.4v45.59c0,2.43-.69,5,3.36,5.22,3.71.18,3.71-1.69,4-4.49a92.47,92.47,0,0,0,.59-10.9c0-9.42.12-18.85-.05-28.27-.07-3.43.93-4.73,4.56-4.71q45.72.18,91.44,0c3.8,0,5.1,1.21,4.94,5-.26,5.76.18,11.55-.15,17.31-.23,3.95,1.31,4.84,5,4.73,4.9-.16,4.21-3.59,4.24-6.5.21-15.38.19-30.76.49-46.14.14-7,1.91-13.36,9.66-16,1-.33,2.54-.62,2.5-2-.21-7.33,4.34-13.52,5-20.53.88-9.2,5.57-17.48,6-26.77a7.83,7.83,0,0,1,2.36-4.5c4.16-4.28,5.24-9.49,5.79-15.17a12.62,12.62,0,0,1,5.82-9.52c2.08-1.29,3.2-2.46,2.92-4.93-.55-4.89,1.58-9,4.15-12.9,1.49-2.26,3.35-4.57,2.92-7.34-1.7-10.94,2.78-21.08,4.59-31.4,3.82-21.84,4.35-43.83,6.12-65.77l1.65-20.6,1.81.1c0,14.21-.25,28.43.07,42.63.32,14.53.92,28.94,3.93,43.39,1.76,8.42,5.16,16.83,4.66,25.6a26.76,26.76,0,0,0,5.27,18.22,13,13,0,0,1,2.08,8.83c-.14,2,0,3.6,2.12,4.85,4.45,2.65,6.41,6.89,6.8,12,.33,4.25,1.4,8.08,4.49,11.51a18.21,18.21,0,0,1,4.68,13.26,16,16,0,0,0,1.12,6.16c3.65,10.23,5.72,20.89,8.13,31.45.49,2.19.86,3.95,3.2,4.79,6.81,2.47,8.95,7.63,8.86,14.5-.21,16.35,0,32.7-.23,49-.05,3.45.85,4.69,4.49,4.7,7,0,8.91,2.16,9.09,9.37.08,3.29-.27,7-.27,10.31a.83.83,0,0,0,1.42.62c3.27-6.42,9-7.17,15-6.86a103.61,103.61,0,0,0,17.35-.06c8.38-1,14.64,1.13,18.1,9.28.25.59.16,1.47,1.36,1.06.59,0,1-4.38,1-6.44q0-84.54,0-169.07c0-8.3-1-7.22,7.51-7.25,18.13-.07,36.27.18,54.4-.15,5.35-.1,7.17,1,7.13,6.79-.27,43.28-.11,86.56-.21,129.84,0,4.36.12,6.86,5.94,6.87s6.33-2.42,6.3-7.1c-.16-26.74-.07-53.47-.07-80.21q0-133.3-.13-266.59c0-5.37,1.49-6.66,6.68-6.57,18.13.32,36.27.14,54.4.15,9.55,0,9.54,0,9.54,9.45q0,164.16,0,328.33c0,2.2-.25,4.9.81,6.42,1.54,2.22,4.47-1.42,6.57-2.62,12.83-7.35,25.68-14.67,38.39-22.24,2.87-1.71,5-1.53,7.72.1q22.59,13.32,45.39,26.29c2.19,1.25,4.13,3.53,7.39,2.9v-6.41q0-78.76,0-157.53c0-2.85-.18-5.37,2.77-7.54,21.36-15.71,42.52-31.67,63.79-47.5q56-41.64,112-83.23c1.23-.92,2.28-2.07,4.38-1.57V783.54q-563.75,0-1127.49.11c-4.43,0-6.78-.51-6.78-5.46q.27-217.76.15-435.51c4.16,1.05,4.75-1.8,4.75-4.34,0-19.43.09-38.85-.09-58.28,0-3.81.69-5.94,5-5.21,3.77.64,4.52-1.29,4.43-4.62-.2-7.11-.1-14.23,0-21.35,0-1.38-.69-3.71,1.53-3.7,5.47,0,4.46-3.81,4.13-6.77-.57-5,1-7.23,6.26-6.29,1.12.21,2.33-.11,3.46.06,4.28.65,5.92-1,5.51-5.37-.21-2.32,1.56-11,8.25-11.13C43.31,215.65,42.78,213.92,43.4,212.35ZM83,177.27c0-9.2,0-18.4,0-27.6,0-1.7,1.06-4.44-1.85-4.6-3.07-.17-2.12,2.64-2.13,4.31Q78.9,176.7,79,204c0,1.74-1.39,5,2.09,4.81,3.18-.18,1.8-3.3,1.83-5.1C83.08,194.9,83,186.08,83,177.27Z" style="fill:#222"/></g><path d="M138.43,91.37V69.18l12.86-14.75c4.31,3.39,8.67,5.16,12.59,5.16h.33l-5.81,8.7a99.45,99.45,0,0,0-9-4.57v42a11.19,11.19,0,0,0,2.8.3c4.68,0,8.61-2.73,12.86-8.11l.48.37c-3.93,11.06-9.52,16.07-18,16.07-11.09,0-19.27-11.06-19.27-26.84,0-12.75,5.22-23.37,13.35-27.43l.16.37C136.38,66.08,134,72.35,134,80.83c0,6.56,1.19,11.87,3.72,15.92A12.77,12.77,0,0,0,138.43,91.37Zm9.47-29.12-2.69,3.09V82.08c0,6.56-1.83,10.84-6.51,16.15a16.87,16.87,0,0,0,9.2,7.15Z" style="fill:#222"/><path d="M166.2,106.48c1.62-1.69,1.88-3.76,1.88-7.15V77.43A17.77,17.77,0,0,0,177,70c3.93,4,7.32,6.12,9.85,6.63v30.23a22.4,22.4,0,0,0-9.26,7.08A27.4,27.4,0,0,0,166.2,106.48Zm14.64-.22V81.49c-2.05-1.11-4.31-2.43-6.73-4.06v25C176.43,103.83,178.63,105.08,180.84,106.26Z" style="fill:#222"/><path d="M198.49,104.64l1.72,3-4.73,6.27-4.9-6.27,1.88-2.8V81.49a5.19,5.19,0,0,0-1.29-3.91l-1,1.18-1-1.47,5.32-7.3c2.91,2.21,4,5.08,4,9.51v.37A84.61,84.61,0,0,0,206.35,70l4.2,6.41,2.53-3.32,1,1.33a60.54,60.54,0,0,0-2.74,5.75V104a4,4,0,0,0,1.56,2.65l1.08-1.18,1,1.33-5.81,7.15c-3.29-2.73-3.88-6-3.88-11.28V81.19l-2.63-3.53-4.15,4.49Z" style="fill:#222"/><path d="M215.82,106.48c1.62-1.69,1.88-3.76,1.88-7.15V77.43A17.77,17.77,0,0,0,226.64,70c3.93,4,7.32,6.12,9.85,6.63v30.23a22.4,22.4,0,0,0-9.26,7.08A27.4,27.4,0,0,0,215.82,106.48Zm14.64-.22V81.49c-2.05-1.11-4.31-2.43-6.73-4.06v25C226.05,103.83,228.25,105.08,230.46,106.26Z" style="fill:#222"/><path d="M251,55.68l.11.37a11,11,0,0,0-3,8v38.34l4.31,4,1.56-1.84.91,1.4c-1.83,2.36-3.76,4.87-5.81,7.74a23.32,23.32,0,0,0-9.15-7.3c1.46-1.47,2.15-3.54,2.15-6.71V63.5c0-1.62-1-3.69-2.52-5.83l.21-.36A9.57,9.57,0,0,1,244,60.25h.59C246.61,57.31,248.65,55.83,251,55.68Z" style="fill:#222"/><path d="M264.1,106.63l1.13-1.18,1,1.33-5.92,7.15c-3.29-2.29-3.72-5.6-3.72-11.28V79.06l-2.2-3.1,4.95-6,4.95,6.41-1.67,2.66V104A4,4,0,0,0,264.1,106.63Zm-2.69-49.84h3.93l-4.85,9.95h-.59Z" style="fill:#222"/><path d="M271.79,113.78h-.59c-3-4-4.46-7.44-4.46-12.16,0-5.31,1.93-10.77,6.13-16.37l-3-11.65a6.35,6.35,0,0,0,1.18.07A6.65,6.65,0,0,0,277.12,70L286,74.41l1.77-1.84.43.51a23.1,23.1,0,0,0-2.2,7v23.74a3.83,3.83,0,0,0,1.5,2.65l1.19-1.1.91,1.32-5.7,7.08c-2.69-2.14-3.88-5.16-3.88-9.73v-.29ZM280,89.6V79.72l-8.55-4.5L274,85Zm0,1.7-6.13-4.65a21.08,21.08,0,0,0-1.78,8.48c0,4.72,1.19,8.63,3.5,11.57L280,101Z" style="fill:#222"/><path d="M301.18,55.68l.11.37a11,11,0,0,0-3,8v38.34l4.3,4,1.56-1.84.92,1.4c-1.83,2.36-3.77,4.87-5.82,7.74a23.21,23.21,0,0,0-9.14-7.3c1.45-1.47,2.15-3.54,2.15-6.71V63.5c0-1.62-1-3.69-2.53-5.83l.22-.36a9.68,9.68,0,0,1,4.25,2.94h.59C296.82,57.31,298.87,55.83,301.18,55.68Z" style="fill:#222"/><path d="M328.52,91.37V69.18l12.86-14.75c4.31,3.39,8.67,5.16,12.6,5.16h.32l-5.81,8.7a99.45,99.45,0,0,0-9-4.57v42a11.19,11.19,0,0,0,2.8.3c4.68,0,8.61-2.73,12.86-8.11l.48.37c-3.93,11.06-9.52,16.07-18,16.07-11.09,0-19.27-11.06-19.27-26.84,0-12.75,5.22-23.37,13.35-27.43l.16.37c-5.44,5.68-7.86,11.95-7.86,20.43,0,6.56,1.19,11.87,3.72,15.92A12.61,12.61,0,0,0,328.52,91.37ZM338,62.25l-2.69,3.09V82.08c0,6.56-1.83,10.84-6.51,16.15a16.87,16.87,0,0,0,9.2,7.15Z" style="fill:#222"/><path d="M356.29,106.48c1.62-1.69,1.88-3.76,1.88-7.15V77.43A17.77,17.77,0,0,0,367.11,70c3.93,4,7.32,6.12,9.85,6.63v30.23a22.4,22.4,0,0,0-9.26,7.08A27.4,27.4,0,0,0,356.29,106.48Zm14.64-.22V81.49c-2.05-1.11-4.31-2.43-6.73-4.06v25C366.52,103.83,368.72,105.08,370.93,106.26Z" style="fill:#222"/><path d="M384.06,99.77V76.48h-3.55l.48-4.72h3.07V62.25a41.19,41.19,0,0,0,6.51-6.64l6.19,2.06-1.34,6.79-5.33-1.85v9.15h4.74l-.6,4.72h-4.14v26l4.3,4,2.21-2.72.86,1.4c-2.69,3.54-4.79,6.41-6.4,8.62a24.07,24.07,0,0,0-9.1-7.3C383.36,105,384.06,102.94,384.06,99.77Z" style="fill:#222"/><path d="M400.31,99.77V76.48h-3.55l.49-4.72h3.06V62.25a41.63,41.63,0,0,0,6.52-6.64L413,57.67l-1.35,6.79-5.33-1.85v9.15h4.74l-.59,4.72h-4.15v26l4.31,4,2.2-2.72.87,1.4c-2.7,3.54-4.79,6.41-6.41,8.62a24.11,24.11,0,0,0-9.09-7.3C399.62,105,400.31,102.94,400.31,99.77Z" style="fill:#222"/><path d="M431.91,82.37c-4,4.13-7.59,8.19-10.82,11.95v9.21l5,3.17,4.09-3.9.92,1.55c-2.91,2.72-5.87,5.89-9,9.43a20,20,0,0,0-8.88-5.16c1.45-1.55,1.88-3.61,1.88-6.78V77.43A42.25,42.25,0,0,0,423.67,70Zm-5.28,2.88-5.86-8.63V91.81Z" style="fill:#222"/><path d="M451.82,82.37c-4,4.13-7.59,8.19-10.82,11.95v9.21L446,106.7l4.09-3.9.92,1.55c-2.91,2.72-5.87,5.89-9,9.43a20,20,0,0,0-8.88-5.16c1.45-1.55,1.88-3.61,1.88-6.78V77.43A42.27,42.27,0,0,0,443.59,70Zm-5.27,2.88-5.87-8.63V91.81Z" style="fill:#222"/><path d="M476.63,91.37V69.18l12.86-14.75c4.31,3.39,8.67,5.16,12.6,5.16h.32l-5.81,8.7a99.45,99.45,0,0,0-9-4.57v42a11.24,11.24,0,0,0,2.8.3c4.68,0,8.61-2.73,12.86-8.11l.48.37c-3.92,11.06-9.52,16.07-18,16.07-11.09,0-19.27-11.06-19.27-26.84,0-12.75,5.22-23.37,13.35-27.43l.16.37c-5.43,5.68-7.86,11.95-7.86,20.43,0,6.56,1.19,11.87,3.72,15.92A12.61,12.61,0,0,0,476.63,91.37Zm9.47-29.12-2.69,3.09V82.08c0,6.56-1.83,10.84-6.51,16.15a16.87,16.87,0,0,0,9.2,7.15Z" style="fill:#222"/><path d="M504.4,106.48c1.62-1.69,1.89-3.76,1.89-7.15V77.43A17.79,17.79,0,0,0,515.22,70c3.93,4,7.32,6.12,9.85,6.63v30.23a22.4,22.4,0,0,0-9.26,7.08A27.4,27.4,0,0,0,504.4,106.48Zm14.64-.22V81.49c-2-1.11-4.3-2.43-6.73-4.06v25C514.63,103.83,516.83,105.08,519,106.26Z" style="fill:#222"/><path d="M545.57,70a19.09,19.09,0,0,1,3.93,9.88A73.21,73.21,0,0,0,557.41,70l4.2,6.41,2.53-3.32,1,1.33a54.8,54.8,0,0,0-2.69,5.75V104a4,4,0,0,0,1.51,2.65l1.13-1.18,1,1.33-5.75,7.15c-3.29-2.73-3.88-6-3.88-11.28V81.19l-2.64-3.9-4.14,4.86v22.49l1.67,3-4.63,6.27-4.95-6.27,1.83-2.8V81.49a6.39,6.39,0,0,0-2.1-4.2l-4.74,5.23v22.12l1.73,3-4.74,6.27-4.9-6.27,1.89-2.8V81.49a6.42,6.42,0,0,0-1.3-4.2l-1,1.47-1-1.47L532.6,70c2.91,2.28,4,5.08,4,9.66V80Z" style="fill:#222"/><path d="M567.1,104.05a23.94,23.94,0,0,1,3.34-1.4V81.78c0-2.5-.06-3.9-1.29-4.86l-1.51,1.62-.91-1.33L572.16,70c2.64,1.77,4,4.72,4.36,9.14A63,63,0,0,0,582.71,70c4.2,1.91,6.46,6.85,6.46,14.45v20.2a34.52,34.52,0,0,0-7.64,8.85,30.56,30.56,0,0,0-5.06-3.84v5.24c0,3.91,1,6.78,3.12,10.47h-.16c-2.75,0-4.58-2-6.62-5.75-1.78,2.5-3.29,3.83-4.9,3.83h-.16a14.11,14.11,0,0,0,2.69-8.33v-7.52a4.44,4.44,0,0,0-2.1-.44,8,8,0,0,0-1.24.07Zm16-21.68a7,7,0,0,0-3.07-4.94l-3.55,4.72v20.57a36.84,36.84,0,0,1,6.62,3.25Z" style="fill:#222"/><path d="M597.89,113.78h-.6c-3-4-4.46-7.44-4.46-12.16,0-5.31,1.94-10.77,6.13-16.37L596,73.6a6.4,6.4,0,0,0,1.18.07A6.65,6.65,0,0,0,603.21,70L612,74.41l1.78-1.84.43.51a23.17,23.17,0,0,0-2.21,7v23.74a3.84,3.84,0,0,0,1.51,2.65l1.18-1.1.92,1.32-5.71,7.08c-2.69-2.14-3.87-5.16-3.87-9.73v-.29Zm8.18-24.18V79.72l-8.56-4.5L600.09,85Zm0,1.7-6.14-4.65a21.07,21.07,0,0,0-1.77,8.48c0,4.72,1.18,8.63,3.49,11.57l4.42-5.67Z" style="fill:#222"/><path d="M624.42,104.64l1.72,3-4.73,6.27-4.9-6.27,1.88-2.8V81.49a5.19,5.19,0,0,0-1.29-3.91l-1,1.18-1-1.47,5.32-7.3c2.91,2.21,4,5.08,4,9.51v.37A84.61,84.61,0,0,0,632.28,70l4.2,6.41L639,73.08l1,1.33a58.09,58.09,0,0,0-2.74,5.75V104a4,4,0,0,0,1.56,2.65l1.08-1.18,1,1.33-5.81,7.15c-3.29-2.73-3.88-6-3.88-11.28V81.19l-2.64-3.53-4.14,4.49Z" style="fill:#222"/><path d="M658.76,70.28c2.63,3.91,4,8.85,4,14.67,0,8.7-3.61,14.16-10.44,20.72-2.64,2.51-6.19,4.65-9.15,8.33a7.84,7.84,0,0,0-1.78,4.65,4.36,4.36,0,0,0,4.74,4.57c3.5,0,4.47-3.83,6-3.83.76,0,1.19.66,1.19,1.62,0,2.21-2.75,4.42-7.11,4.42s-6.62-2.43-6.62-6.41c0-2.21.92-4.28,2.16-6.86,1.77-3.54,2.85-5.75,2.85-6.63v-24a5.26,5.26,0,0,0-1.29-4l-1.89,2.21-1-1.48L646.49,70c2.69,2,4,5.16,4,9.88v.29ZM657,88.12c0-4.49-.86-7.81-2.58-10.1l-3.93,4.72v22.05A23.2,23.2,0,0,0,657,88.12Z" style="fill:#222"/><path d="M289.78,164.56c1.14-1.2,1.33-2.66,1.33-5.06V144a12.6,12.6,0,0,0,6.32-5.27c2.78,2.82,5.18,4.33,7,4.7v21.38a15.82,15.82,0,0,0-6.55,5A19.34,19.34,0,0,0,289.78,164.56Zm10.35-.16V146.88c-1.44-.78-3-1.72-4.76-2.87v17.68C297,162.68,298.57,163.57,300.13,164.4Z" style="fill:#222"/><path d="M309.42,159.81V143.33h-2.51l.34-3.34h2.17v-6.72a29.07,29.07,0,0,0,4.61-4.7l4.38,1.46-1,4.8-3.76-1.3V140H317l-.42,3.34h-2.93v18.36l3,2.87,1.56-1.93.61,1c-1.9,2.5-3.39,4.54-4.53,6.1a16.93,16.93,0,0,0-6.43-5.16C308.93,163.51,309.42,162.05,309.42,159.81Z" style="fill:#222"/><path d="M340.26,167.37c1.48,0,2.89.53,4.18.53,2.1,0,3.24-1.36,3.24-3.71,0-3.18-2-5.58-5.18-5.58a9.54,9.54,0,0,0-1.67.11c.76-1.72,1.86-2.56,3.39-2.56a8.07,8.07,0,0,1,2,.37c-.72-3.71-2.47-5.58-5.06-5.58a7.37,7.37,0,0,0-1.41.15c.65-1.61,1.64-2.45,3.12-2.45a6.31,6.31,0,0,1,3.39,1.3c-.57-4.22-2.78-6.67-6.2-6.67h-.27a3.4,3.4,0,0,1,3.16-2.09,6.81,6.81,0,0,1,3.31,1.1v-5.17l11.16-9.38c6.7,2.92,10.16,8,10.16,14.55,0,6.41-2.36,13.25-7.08,21a8.7,8.7,0,0,1,3.31-.78,13.22,13.22,0,0,1,4,.78l.8-1.56.95.78-3.2,7.62a11.73,11.73,0,0,0-4.26-1.1c-2.52,0-4.38,1.51-5.64,4.59l-.45-.52c.41-4.49,2.93-10.38,5.48-19.14-1.26-1.46-2.44-2.24-3.73-2.24-1.64,0-2.9.78-4.42,2.19v6.83c0,7.4-3.84,13-8.56,13-2.78,0-5.22-2-7.2-2a5.15,5.15,0,0,0-3.05,1.1l-.07-.31C336.07,169,337.9,167.37,340.26,167.37Zm7.69,1.15c2.74,0,4.34-3.13,4.34-9V134.31l-1.72,1.25v22.53c0,5.58-.95,8.92-3.31,10.38A3.21,3.21,0,0,0,348,168.52ZM358,145a5.29,5.29,0,0,0,4.3-2.66c-1.14-4.59-4.3-7.62-8.95-8.14v8.24C355.07,144.11,356.59,145,358,145Zm-.27,5.42a5.57,5.57,0,0,1,4,2,23,23,0,0,0,1-6.31,11.81,11.81,0,0,0-.19-2.3,5.82,5.82,0,0,1-4.56,2.5,6.64,6.64,0,0,1-4.65-2.24v8.29A6.68,6.68,0,0,1,357.77,150.37Z" style="fill:#222"/><path d="M383.58,147.5c-2.86,2.92-5.37,5.79-7.65,8.45v6.52l3.5,2.24,2.89-2.76.65,1.1c-2.06,1.93-4.15,4.17-6.36,6.67a14.19,14.19,0,0,0-6.28-3.65c1-1.09,1.33-2.56,1.33-4.8V144a30,30,0,0,0,6.09-5.27Zm-3.73,2-4.15-6.1v10.74Z" style="fill:#222"/><path d="M404.59,138.74c2,2.5,3,4.7,3,7.36v18.72a17.75,17.75,0,0,0-6.28,5c-2.13-1.83-3.77-2.72-5-2.72s-2.63.89-4,2.72a20.41,20.41,0,0,0-7.88-5.27c1.15-1.2,1.34-2.66,1.34-5.06V144.64a12.45,12.45,0,0,1-1.87-6c0-3.13,1.52-5.69,4.53-7.88l.34.83a6.87,6.87,0,0,0-1.82,4.18,7.4,7.4,0,0,0,1.22,3.33,13.26,13.26,0,0,1,1.86,6.58l5.83-6.89a11.48,11.48,0,0,1,2.93,7Zm-10,8.71a6.61,6.61,0,0,0-1.45-3.55L390,147.61v14.44a44.38,44.38,0,0,0,4.57,2.66Zm9.06,0a6.61,6.61,0,0,0-1.45-3.55l-3.35,3.71v14.86a26,26,0,0,0,4.8,2.24Z" style="fill:#222"/><path d="M426,158.72a10.49,10.49,0,0,0-5-9.13v-.42a5.22,5.22,0,0,1,1.44-.15,6.23,6.23,0,0,1,3.58,1.35c0-.31.08-.73.08-1,0-4-1.64-6.68-5-8.4v-.47a5.84,5.84,0,0,1,2.05-.36,6.24,6.24,0,0,1,2.82.83v-5.37c0-4.07-1.29-5.84-4.19-5.84h-.6v-.52a6.14,6.14,0,0,1,3.76-1.41c3,0,5.14,2.29,5.91,6.1,3.23-3,5.93-4.69,8.26-4.69,5,0,8.37,5.42,8.37,14.65,0,12.26-4.41,18.83-12.56,18.83h-7.92c-4.45,0-6.78,2.3-6.78,6.36,0,3.08,1.64,5.38,4.23,5.38a4.37,4.37,0,0,0,2.17-.53c3.69-2.08,6.59-4.06,9.4-4.06,3.09,0,5,2.34,5,5.42,0,1.56-.8,2.71-1.9,2.71s-1.83-1-1.83-2.5c0-1.2.76-2.14.76-2.66,0-.68-.27-1-.8-1-.68,0-2.28,1.25-5,3.18-2,1.46-3.88,3-6.54,3-3.81,0-6.63-3.75-6.63-8.65s2.48-8,6.89-8.14Zm6.82,2.55V134.15l-2.06,1.31v25.81Zm3.73-28.68a4.85,4.85,0,0,0-2.67.88v7.72a5.34,5.34,0,0,0,3.77,2c1.45,0,2.74-.79,4.15-2.3C441.17,135.46,439.27,132.59,436.57,132.59Zm5.67,13.82c0-1.15-.11-2.51-.23-4.07a6.1,6.1,0,0,1-4.26,2.24,5.83,5.83,0,0,1-3.85-1.67v7.77a5.48,5.48,0,0,1,4-1.66,6.18,6.18,0,0,1,4,2A43.16,43.16,0,0,0,442.24,146.41Zm-6.81,14.86c2.93,0,5.4-3.18,6.24-8.76a5.22,5.22,0,0,0-3.92-2.14,4.88,4.88,0,0,0-3.85,1.88v9Z" style="fill:#222"/><path d="M449.51,164.56c1.14-1.2,1.33-2.66,1.33-5.06V144a12.6,12.6,0,0,0,6.32-5.27c2.78,2.82,5.18,4.33,7,4.7v21.38a16,16,0,0,0-6.55,5A19.34,19.34,0,0,0,449.51,164.56Zm10.36-.16V146.88c-1.45-.78-3.05-1.72-4.76-2.87v17.68C456.74,162.68,458.3,163.57,459.87,164.4Z" style="fill:#222"/><path d="M472.43,144l4.34-5.27,3,5-3.08,3.86-2.55-3.81-1.83,1.77v16.59l2.48,2.55,1.25-1.46.65,1c-1.3,1.67-2.67,3.45-4.11,5.48a14.4,14.4,0,0,0-5.87-5.16c1-1.05,1.34-2.51,1.34-4.75V146.88a5.07,5.07,0,0,0-.92-3.08l-.72,1.15-.72-1,4-5.16A6.29,6.29,0,0,1,472.43,144Z" style="fill:#222"/><path d="M480.46,129.88l.15-.32a6.16,6.16,0,0,1,2.93,2.19H484c1.18-2,2.55-3.13,4.34-3.34l.08.32a8.06,8.06,0,0,0-2.1,5.68v12.1l5.6-7.77,4.15,6.47c-.73.89-2.1,2.82-4.19,5.58a12.71,12.71,0,0,1,2.93,6.1c.69,3,.46,5.84,1.49,7.51l.72-.83.76,1.09-4.19,5.06c-1.25-1-1.9-3.23-2.17-6.47l-4.11,6.58a19.72,19.72,0,0,0-6.47-4.49c1.18-1.25,1.22-2.66,1.22-4.8V143.33h-2.25V140h2.25v-5.68A7.16,7.16,0,0,0,480.46,129.88Zm11.84,18.2L489.63,144l-3.31,4.64v7.25Zm-1.18,13a10.22,10.22,0,0,0-2.36-6.37l-2.44,3.13V163l2.48,2Z" style="fill:#222"/><path d="M1020.83,309.82c-3.38-.13-5.39,1.28-6.22,4.52a16.08,16.08,0,0,0,3,14.55c.88,1.12,2.16,1.92,3.29,3.25a15,15,0,0,1-3.18-.36c-7.83-2.61-12.18-14.11-8.1-21.24,2.46-4.28,5-5.25,10.88-3.89a38.79,38.79,0,0,0-.83-4.48c-1.1-3.65-.43-6,2.64-8.29,4-3,8.72-4.27,13.49-5.09a112.67,112.67,0,0,1,12.74-1.12c1.18-.07,1.78-.28,2.1-1.45s.7-2.59-.6-3.49a8,8,0,0,0-2.56-1.07c-5.32-1.33-10.66-2.59-16-3.93a5.2,5.2,0,0,1-3.71-2.69c-1.67-3.38.17-7.1,4-7.4a83,83,0,0,1,9.46.12c3.27.12,6.54.4,9.82.49a13.11,13.11,0,0,0,11-5.26,30.12,30.12,0,0,0,2.79-4.24c1-1.73.74-2.33-1-3.44-.44-.29-.92-.51-1.37-.78s-.73-.44-1.38-.85c3.42.23,6.64,2.59,7.12,5.41a27.84,27.84,0,0,1,.26,7.12c-.25,2.72-2.28,4.24-4.74,4.81-4.83,1.09-9.72,1.94-14.59,2.89l-.51.1,0,.27c1.2.22,2.4.47,3.61.65,3.5.52,6.13,2.5,8.41,5a4.57,4.57,0,0,1,.7,5.24c-.42,1-.89,1.89-1.34,2.85,3.07.7,6.15,1.26,9.14,2.12,3.62,1,7.12,2.39,9.58,5.5a4.43,4.43,0,0,1,1,3.92q-2.6,11.71-5.11,23.45c-.92,4.23-1.84,8.45-2.67,12.69a9.13,9.13,0,0,1-4.63,6.09,31.12,31.12,0,0,1-13.1,4.13,46.54,46.54,0,0,1-18.91-1.69c-3.68-1.12-6.64-3.4-9.67-5.58a2.53,2.53,0,0,1-.6-1.54q-2-13.46-4-26.9A2.68,2.68,0,0,0,1020.83,309.82Zm7.34-1.87a13.62,13.62,0,0,0,0,1.59c.85,7.55,1.77,15.1,2.53,22.66.18,1.85,1.25,2.39,2.69,2.9a43.51,43.51,0,0,0,19.54,2,33.26,33.26,0,0,0,11.55-3.37,3.33,3.33,0,0,0,1.88-2.51c1.37-6.39,2.82-12.77,4.24-19.15.4-1.85.76-3.71,1.19-5.79l-6.94,2.52a18.13,18.13,0,0,1,2.64-3c2.9-2.95,2.6-5.13-.94-7.29s-7.54-2.7-11.55-3.22a13.28,13.28,0,0,1-2.12-.72c-2.29,1.48-4.53,3.78-8.25,4.42l1.21-3.92c-1,.1-2,.15-2.88.27-4.19.54-8.35,1.25-11.91,3.74-2.72,1.91-2.94,4.71-.63,7.16.66.69,1.39,1.33,2.08,2l-.14.31Z" style="fill:#eee"/><path d="M1008.42,327.14a27.42,27.42,0,0,0-2.62,2.33c-3.69,4.22-5,11.42.69,16.46,5.32,4.68,11.74,6.95,18.44,8.48a90.41,90.41,0,0,0,48-1.52,46.09,46.09,0,0,0,10.83-5.24c10-6.39,6.49-16.83-.92-21l-1.92-1.08.18-.44c1.11.4,2.24.73,3.31,1.22,4.95,2.27,9.54,5,12.37,9.93a12.37,12.37,0,0,1-2.63,15.88c-5.55,5-12.23,7.68-19.28,9.61-15,4.1-30.13,4.48-45.41,2.2-8.49-1.26-16.75-3.4-24.18-7.86a31.27,31.27,0,0,1-6.87-5.64,11.89,11.89,0,0,1-1.26-14.34A22,22,0,0,1,1008,327C1008,327,1008.17,327.07,1008.42,327.14Z" style="fill:#eee"/><path d="M1041.22,298c-1,2.15.2,2.73,1.47,3.17a31.9,31.9,0,0,0,14.16,1.26c.67-.07,1.34-.09,2.52-.17a10.41,10.41,0,0,1-5.79,2.33,31.64,31.64,0,0,1-15.22-.83c-1.17-.38-2.69-.68-2.78-2.25s1.49-2,2.69-2.57A30.33,30.33,0,0,1,1041.22,298Z" style="fill:#eee"/><path d="M1001.31,393.79v-10l6.58-6.67a10,10,0,0,0,6.33,2.06c.34,0,.65,0,1,0l-4.68,6.07h3.62c-.62,1.57-1.21,2.94-1.71,4.24l-5.35,0,0,10.87a6.07,6.07,0,0,0,1.37.13c2.47,0,4.51-1.23,6.73-3.67l.25.17c-2,5-5,7.27-9.36,7.27-5.77,0-10-5-10-12.14,0-5.77,2.72-10.57,7-12.41l.08.17a12,12,0,0,0-4.14,9.27,12.59,12.59,0,0,0,2,7.17A5.06,5.06,0,0,0,1001.31,393.79Zm5-13.18-1.46,1.4v7.58c0,3-1,4.9-3.39,7.3a8.53,8.53,0,0,0,4.85,3.24Zm4.64,2.6-3.86-1.83v6.9Z" style="fill:#eee"/><path d="M1018.74,396.19l-3.14-2.2v-6.51a13.43,13.43,0,0,0,4-3.4,8.11,8.11,0,0,0,4.28,1.67c1.13,0,1.74-.6,1.74-1.44,0-.66-.81-1.2-.81-1.86a.9.9,0,0,1,.81-1c.67,0,1.18.6,1.18,1.63a5.45,5.45,0,0,1-1,2.77l-2.91,5,3,2.33v7.71a11.06,11.06,0,0,0-4.12,3,5,5,0,0,0-3.22-1.33,5.85,5.85,0,0,0-3.22,1.1l-.62-.54Zm4.31-1.07-1.85-1.3-3.55,5.87a5.89,5.89,0,0,1,2.18-.46,5.27,5.27,0,0,1,3.22,1.26Zm-2.63-1.73,3-5.17a12.53,12.53,0,0,1-1.8.23,5.73,5.73,0,0,1-3-1v4.64Z" style="fill:#eee"/><path d="M1027.18,387.12v-.74l4.31-7.1v5.63h3.36v2.14h-3.36v12l1.71,1.66.9-.9.47.64c-1,1.06-1.93,2.2-3,3.5a10.71,10.71,0,0,0-4.25-3.3,3.71,3.71,0,0,0,1-3V387.12Z" style="fill:#eee"/><path d="M1035.05,400.63l2.86-3.17a30.7,30.7,0,0,0,2.55,3.33l-2.83,3.14A15,15,0,0,1,1035.05,400.63Z" style="fill:#eee"/><path d="M1046.57,398.59V384.75a3.54,3.54,0,0,0-1.37-3l-1.29,1.33-.42-.67,3.72-3.83a5.9,5.9,0,0,1,2.58,5.3v15.38l1.29,1.27,1.26-1.37.54.6-3.7,4.1-3.53-3.3A2.62,2.62,0,0,0,1046.57,398.59Z" style="fill:#eee"/><path d="M1069.69,389.32c0,5.57-2.44,10.34-7.31,14.54l-5.38-3.27,2.13-3.1,4.9,3.07c1.79-2.17,2.66-5.17,2.66-9.17,0-.37,0-.74,0-1.1l-6.58,5.37a7.08,7.08,0,0,1-4-6.71c0-3.63,2.13-6.94,6.5-10.37C1067,380.08,1069.69,384.25,1069.69,389.32Zm-11.1-2.74c0,3.14,2.08,5.61,4,5.61a1.36,1.36,0,0,0,.82-.3l3.13-2.57c-.7-4.1-2.63-6.51-5.91-7.31A5.49,5.49,0,0,0,1058.59,386.58Z" style="fill:#eee"/><path d="M1070.82,392.85c0-5.17,2.46-10.07,7.31-14.27l5.35,3.3-2.1,3.1-4.91-3.1q-2.68,3.25-2.68,9.21c0,.36,0,.73,0,1.1l6.56-5.37a7.06,7.06,0,0,1,4,6.73c0,3.64-2.1,6.88-6.47,10.31C1073.42,402.33,1070.82,398.29,1070.82,392.85Zm11.09,3c0-3.14-2.07-5.61-4-5.61a1.21,1.21,0,0,0-.78.37l-3.17,2.57c.7,4.07,2.63,6.44,5.91,7.24A5.47,5.47,0,0,0,1081.91,395.86Z" style="fill:#eee"/><path d="M1092,403.86c-4.12,0-6.7-2.7-6.7-6,0-2.06,1.15-4.2,3.39-6.17a4.07,4.07,0,0,1-2.83-4.23c0-2.47,1.6-5.51,4.93-8.84,4.6.33,7.09,2.6,7.09,5.33a5.57,5.57,0,0,1-3.08,4.91,5.7,5.7,0,0,1,3.76,5.64c0,3.33-2.08,6.6-6.2,9.4Zm-4.54-8.1c0,2.4,2.16,4.37,5.55,4.37,2.71,0,4.23-1.44,4.23-3.44,0-2.53-2.61-4-7.82-4.87A5.63,5.63,0,0,0,1087.46,395.76Zm8.41-10.08c0-2.3-2.3-3.27-7-3.6a6,6,0,0,0-1.06,3.07c0,2.63,2,2.77,6.36,3.43C1095.28,387.58,1095.87,386.78,1095.87,385.68Z" style="fill:#eee"/></svg>