<svg xmlns="http://www.w3.org/2000/svg" xmlns:xlink="http://www.w3.org/1999/xlink" viewBox="0 0 1130 479.98"><defs><clipPath id="a"><rect x="-1.77" y="1" width="1134.27" height="479.98" style="fill:none"/></clipPath></defs><title>Artboard 3</title><g style="clip-path:url(#a)"><path d="M43.4,212.35c.82-2.08,4.39-3.17,7.28-3.29,7.58-.32,11.77-4.39,12.64-12,.47-4.13,1.3-8.22,1.74-12.35,1.19-11.29,4.72-22.28,4.35-33.79-.12-3.53.6-7-5-6.15a2.73,2.73,0,0,1-3.22-3.16c.29-2.24,2.25-1.69,3.67-1.73,3.27-.08,6.55,0,9.83,0,1.48,0,3.23.33,3.31-2.07.08-2.24-1.43-2.44-3-2.48-3.47-.09-7-.09-10.41-.2-1.56,0-3.25-.13-3.4-2.26-.17-2.37,1.72-1.94,3.15-2.32,1.88-.5,5.28.94,4.79-3.07s1.94-4.09,4.61-3.74c4.17.55,5.2-1.43,5.34-5.22q1.86-49.83,4-99.65c.15-3.66.51-7.31.82-11.56,2.23,1.82,1.67,3.45,1.69,4.88q.22,23.07.37,46.15c.14,20-.07,40,.62,60,.16,4.85-.94,12.34,8,12.48,1.12,0,1.45,1.09,1.42,2.13s-.46,1.88-1.62,2c-1.54.13-3.08.23-4.62.25-1.71,0-3.06.34-3.19,2.41-.15,2.38,1.48,2.27,3.07,2.28,1.15,0,2.31,0,3.47,0,4,.09,3.69,3.26,1.94,4.48-2.78,2-2,4.25-2.1,6.54-.27,14.15,2.7,28,5.13,41.75,1.31,7.48,2.45,15.53,12.73,16.19,1.14.07,3.87.9,4,2,.52,3.57,3.75,4.63,6.69,5.16,4.4.8,4.91,4.91,5,7.31.32,8.76.39,8.76,9.39,8.82a12.49,12.49,0,0,0,1.73,0c3.05-.42,4.12.91,3.93,3.91-.17,2.67-.86,7.07.35,7.75,5.2,2.91,2.65,7.33,3,11a72.61,72.61,0,0,1,0,13.83c-.54,5.21,1.4,7.13,6.39,6.17,5.55-1.07,6.59,1.65,6.53,6.55-.23,18.85-.14,37.7-.1,56.55,0,1.84-.83,5,.83,5.29,5,.88,3.39,4.37,3.42,7,.18,19.61.39,39.23.21,58.85,0,4.57,2.33,4.16,5.35,4.3,3.28.14,5-.46,4.74-4.32-.34-5,.11-10-.14-15-.18-3.59.74-5.75,4.72-5,6.31,1.25,10.09-1.76,12.87-7,1.07-2,2.63-3.79,3.78-5.77,1.69-2.93,3.9-4.19,7.48-4.06,7.9.28,15.9.79,23.7-.14,8.7-1,13.83,2.48,17.34,9.78,2.42,5.05,5.87,8.36,12.14,7.25,3.85-.69,5,1.4,4.8,5-.25,4.61-.08,9.23,0,13.85,0,2.68-.4,5.48,3.94,5.34s3-3.19,3-5.34c.08-21,.17-41.93,0-62.89,0-4.4,1-5.95,5.71-5.87q26.32.47,52.65.05c4.81-.08,6.19,1.08,6.13,5.95-.28,20,0,40-.21,60,0,4.18,1.75,4.91,5.17,4.46,3.82-.5,2.32-3.49,2.32-5.41.11-27.32.25-54.63-.07-81.94-.06-5.54,1.74-6.65,6.81-6.52,12.72.33,25.47.37,38.19,0,5.41-.16,7.21,1.14,7.16,6.87-.28,33.47-.15,66.93-.15,100.4v45.59c0,2.43-.69,5,3.36,5.22,3.71.18,3.71-1.69,4-4.49a92.47,92.47,0,0,0,.59-10.9c0-9.42.12-18.85-.05-28.27-.07-3.43.93-4.73,4.56-4.71q45.72.18,91.44,0c3.8,0,5.1,1.21,4.94,5-.26,5.76.18,11.55-.15,17.31-.23,3.95,1.31,4.84,5,4.73,4.9-.16,4.21-3.59,4.24-6.5.21-15.38.19-30.76.49-46.14.14-7,1.91-13.36,9.66-16,1-.33,2.54-.62,2.5-2-.21-7.33,4.34-13.52,5-20.53.88-9.2,5.57-17.48,6-26.77a7.83,7.83,0,0,1,2.36-4.5c4.16-4.28,5.24-9.49,5.79-15.17a12.62,12.62,0,0,1,5.82-9.52c2.08-1.29,3.2-2.46,2.92-4.93-.55-4.89,1.58-9,4.15-12.9,1.49-2.26,3.35-4.57,2.92-7.34-1.7-10.94,2.78-21.08,4.59-31.4,3.82-21.84,4.35-43.83,6.12-65.77l1.65-20.6,1.81.1c0,14.21-.25,28.43.07,42.63.32,14.53.92,28.94,3.93,43.39,1.76,8.42,5.16,16.83,4.66,25.6a26.76,26.76,0,0,0,5.27,18.22,13,13,0,0,1,2.08,8.83c-.14,2,0,3.6,2.12,4.85,4.45,2.65,6.41,6.89,6.8,12,.33,4.25,1.4,8.08,4.49,11.51a18.21,18.21,0,0,1,4.68,13.26,16,16,0,0,0,1.12,6.16c3.65,10.23,5.72,20.89,8.13,31.45.49,2.19.86,3.95,3.2,4.79,6.81,2.47,8.95,7.63,8.86,14.5-.21,16.35,0,32.7-.23,49-.05,3.45.85,4.69,4.49,4.7,7,0,8.91,2.16,9.09,9.37.08,3.29-.27,7-.27,10.31a.83.83,0,0,0,1.42.62c3.27-6.42,9-7.17,15-6.86a103.61,103.61,0,0,0,17.35-.06c8.38-1,14.64,1.13,18.1,9.28.25.59.16,1.47,1.36,1.06.59,0,1-4.38,1-6.44q0-84.54,0-169.07c0-8.3-1-7.22,7.51-7.25,18.13-.07,36.27.18,54.4-.15,5.35-.1,7.17,1,7.13,6.79-.27,43.28-.11,86.56-.21,129.84,0,4.36.12,6.86,5.94,6.87s6.33-2.42,6.3-7.1c-.16-26.74-.07-53.47-.07-80.21q0-133.3-.13-266.59c0-5.37,1.49-6.66,6.68-6.57,18.13.32,36.27.14,54.4.15,9.55,0,9.54,0,9.54,9.45q0,164.16,0,328.33c0,2.2-.25,4.9.81,6.42,1.54,2.22,4.47-1.42,6.57-2.62,12.83-7.35,25.68-14.67,38.39-22.24,2.87-1.71,5-1.53,7.72.1q22.59,13.32,45.39,26.29c2.19,1.25,4.13,3.53,7.39,2.9v-6.41q0-78.76,0-157.53c0-2.85-.18-5.37,2.77-7.54,21.36-15.71,42.52-31.67,63.79-47.5q56-41.64,112-83.23c1.23-.92,2.28-2.07,4.38-1.57V783.54q-563.75,0-1127.49.11c-4.43,0-6.78-.51-6.78-5.46q.27-217.76.15-435.51c4.16,1.05,4.75-1.8,4.75-4.34,0-19.43.09-38.85-.09-58.28,0-3.81.69-5.94,5-5.21,3.77.64,4.52-1.29,4.43-4.62-.2-7.11-.1-14.23,0-21.35,0-1.38-.69-3.71,1.53-3.7,5.47,0,4.46-3.81,4.13-6.77-.57-5,1-7.23,6.26-6.29,1.12.21,2.33-.11,3.46.06,4.28.65,5.92-1,5.51-5.37-.21-2.32,1.56-11,8.25-11.13C43.31,215.65,42.78,213.92,43.4,212.35ZM83,177.27c0-9.2,0-18.4,0-27.6,0-1.7,1.06-4.44-1.85-4.6-3.07-.17-2.12,2.64-2.13,4.31Q78.9,176.7,79,204c0,1.74-1.39,5,2.09,4.81,3.18-.18,1.8-3.3,1.83-5.1C83.08,194.9,83,186.08,83,177.27Z" style="fill:#222"/></g></svg>