<svg xmlns="http://www.w3.org/2000/svg" viewBox="0 0 1130 794.53"><title>Artboard 1</title><rect x="-12.98" y="-16.62" width="1153.44" height="826.46" style="fill:#fff"/><path d="M43.06,228.38c.81-2.07,4.38-3.16,7.27-3.28,7.58-.32,11.77-4.39,12.64-12,.47-4.13,1.3-8.22,1.74-12.35,1.19-11.3,4.72-22.28,4.35-33.79-.12-3.54.6-7-5-6.16a2.7,2.7,0,0,1-3.21-3.15c.29-2.25,2.24-1.7,3.66-1.73,3.27-.09,6.55,0,9.83,0,1.48,0,3.23.33,3.31-2.07.08-2.24-1.43-2.44-3-2.48-3.46-.08-6.94-.08-10.4-.19-1.55,0-3.24-.13-3.4-2.26-.17-2.38,1.72-1.94,3.15-2.33,1.88-.5,5.28.94,4.79-3.06s1.94-4.09,4.61-3.74c4.17.55,5.19-1.44,5.34-5.22q1.85-49.83,4-99.66c.15-3.66.52-7.31.83-11.56,2.22,1.83,1.67,3.45,1.68,4.88q.22,23.08.38,46.15c.14,20-.08,40,.61,60,.17,4.85-.93,12.34,8,12.48,1.13,0,1.45,1.1,1.42,2.14s-.46,1.87-1.62,2c-1.53.14-3.08.24-4.62.25-1.7,0-3.06.34-3.18,2.42-.15,2.37,1.47,2.27,3.06,2.27,1.16,0,2.32,0,3.47.06,4,.09,3.69,3.25,1.94,4.48-2.78,1.95-2,4.25-2.09,6.54-.27,14.14,2.69,28,5.12,41.75,1.32,7.47,2.46,15.52,12.73,16.18,1.14.07,3.87.91,4,2,.52,3.57,3.75,4.63,6.69,5.16,4.4.79,4.91,4.91,5,7.3.31,8.77.39,8.77,9.38,8.83a12.47,12.47,0,0,0,1.73,0c3.06-.41,4.12.91,3.93,3.91-.16,2.67-.85,7.07.36,7.75,5.19,2.92,2.64,7.33,3,11a73.45,73.45,0,0,1,0,13.83c-.55,5.21,1.39,7.13,6.38,6.17,5.55-1.06,6.59,1.65,6.53,6.56-.23,18.85-.14,37.7-.1,56.55,0,1.83-.83,5,.83,5.29,5,.88,3.39,4.37,3.41,7,.19,19.62.4,39.24.22,58.85,0,4.57,2.32,4.16,5.35,4.3,3.28.15,5-.45,4.73-4.32-.34-5,.11-10-.14-15-.18-3.6.75-5.76,4.72-5,6.31,1.24,10.1-1.76,12.87-7,1.07-2,2.63-3.78,3.78-5.77,1.69-2.92,3.9-4.19,7.48-4.06,7.89.28,15.9.8,23.69-.13,8.71-1.05,13.83,2.47,17.34,9.78,2.42,5.05,5.87,8.35,12.13,7.24,3.85-.68,5,1.41,4.8,5.05-.24,4.6-.08,9.23,0,13.84,0,2.68-.4,5.49,3.93,5.35s3-3.2,3-5.34c.07-21,.16-41.93-.05-62.9,0-4.4,1-5.95,5.71-5.86,17.55.3,35.1.35,52.64,0,4.81-.08,6.19,1.08,6.13,5.95-.28,20,0,40-.21,60,0,4.19,1.75,4.91,5.17,4.47,3.81-.5,2.31-3.5,2.32-5.42.1-27.31.24-54.63-.07-81.94-.07-5.53,1.74-6.64,6.8-6.51,12.72.32,25.47.37,38.18,0,5.42-.17,7.22,1.13,7.17,6.86-.29,33.47-.15,66.94-.16,100.41q0,22.78,0,45.58c0,2.43-.69,5,3.36,5.22,3.7.18,3.7-1.69,4-4.49a90.33,90.33,0,0,0,.6-10.89c0-9.43.11-18.85-.06-28.28-.06-3.42.93-4.72,4.57-4.71q45.7.18,91.41,0c3.8,0,5.1,1.21,4.94,5-.26,5.76.18,11.55-.15,17.3-.23,4,1.31,4.85,4.95,4.73,4.9-.16,4.2-3.58,4.24-6.5.2-15.38.18-30.76.49-46.14.14-7,1.91-13.35,9.65-16,1-.33,2.55-.62,2.51-2-.21-7.33,4.33-13.53,5-20.54.88-9.2,5.57-17.47,6-26.76a7.86,7.86,0,0,1,2.36-4.51c4.16-4.27,5.24-9.49,5.79-15.16a12.62,12.62,0,0,1,5.82-9.52c2.08-1.3,3.2-2.47,2.92-4.93-.55-4.9,1.58-9,4.14-12.9,1.5-2.27,3.36-4.58,2.93-7.35-1.71-10.93,2.78-21.07,4.58-31.4,3.82-21.84,4.36-43.83,6.13-65.77l1.65-20.59,1.8.09c0,14.21-.25,28.43.07,42.64.33,14.52.92,28.94,3.94,43.38,1.75,8.42,5.15,16.83,4.65,25.61a26.71,26.71,0,0,0,5.27,18.21,13,13,0,0,1,2.08,8.83c-.14,2,0,3.6,2.12,4.86,4.44,2.65,6.4,6.88,6.8,12,.33,4.25,1.4,8.08,4.48,11.5a18.19,18.19,0,0,1,4.68,13.26,15.79,15.79,0,0,0,1.13,6.16c3.65,10.24,5.72,20.9,8.12,31.46.49,2.18.87,3.94,3.21,4.79,6.8,2.46,8.94,7.63,8.85,14.5-.21,16.35,0,32.7-.23,49-.05,3.45.85,4.7,4.49,4.7,7,0,8.91,2.16,9.08,9.38.08,3.29-.27,7-.27,10.31a.84.84,0,0,0,1.43.61c3.26-6.42,9-7.17,15-6.85A103.36,103.36,0,0,0,670.9,483c8.39-1,14.65,1.14,18.1,9.29.26.59.16,1.46,1.36,1.06.59,0,1-4.38,1-6.45q0-84.54,0-169.07c0-8.29-.95-7.22,7.51-7.25,18.13-.06,36.26.19,54.39-.14,5.35-.1,7.17,1,7.13,6.79-.27,43.27-.11,86.55-.21,129.83,0,4.37.12,6.86,5.94,6.87s6.33-2.41,6.3-7.1c-.16-26.73-.08-53.47-.08-80.21q0-133.29-.13-266.59c0-5.36,1.49-6.65,6.69-6.56,18.12.32,36.25.13,54.38.14,9.55,0,9.54,0,9.54,9.45q0,164.18,0,328.34c0,2.2-.24,4.9.82,6.42,1.54,2.21,4.47-1.43,6.56-2.63,12.83-7.35,25.69-14.67,38.39-22.24,2.87-1.71,5-1.53,7.71.1q22.59,13.32,45.39,26.29c2.19,1.26,4.12,3.53,7.38,2.91V278.25c0-2.84-.18-5.37,2.76-7.54,21.36-15.7,42.52-31.67,63.78-47.49q56-41.64,112-83.24c1.23-.92,2.28-2.07,4.38-1.56V799.58q-563.61,0-1127.23.11c-4.43,0-6.77-.52-6.77-5.46q.27-217.76.15-435.51c4.15,1,4.75-1.8,4.75-4.34,0-19.43.08-38.86-.09-58.28,0-3.81.68-6,5-5.22,3.76.65,4.51-1.29,4.42-4.62-.19-7.11-.09-14.23,0-21.35,0-1.38-.69-3.71,1.53-3.7,5.48,0,4.46-3.81,4.13-6.76-.56-5,1-7.24,6.26-6.29,1.12.2,2.33-.12,3.46.05,4.28.65,5.92-1,5.51-5.36-.21-2.32,1.56-11,8.24-11.13C43,231.69,42.44,230,43.06,228.38Zm39.6-35.08c0-9.2,0-18.4,0-27.6,0-1.69,1.06-4.43-1.85-4.59-3.07-.17-2.12,2.63-2.13,4.31q-.11,27.3,0,54.62c0,1.74-1.39,5,2.09,4.8,3.17-.17,1.8-3.29,1.83-5.09C82.73,210.93,82.65,202.12,82.66,193.3Z" style="fill:#222"/><text transform="translate(36.66 666.94) scale(0.73 1)" style="font-size:103.93295288085938px;fill:#fff;font-family:CLoisterOpti-Black, CLoisterOpti;letter-spacing:-0.02399862133463385em">Conolial Coffee Company</text><path d="M876.35,612.85c-10.83-.42-17.26,4.08-19.91,14.46-4.36,17.05-1.1,32.75,9.75,46.57,2.8,3.58,6.89,6.15,10.51,10.4-3.41-.36-7-.11-10.18-1.17-25-8.35-39-45.13-25.91-68,7.86-13.72,16.1-16.82,34.83-12.47-.91-5-1.3-9.82-2.66-14.32-3.54-11.68-1.39-19.07,8.43-26.54,12.76-9.72,27.91-13.67,43.18-16.28,13.41-2.29,27.15-2.84,40.77-3.6,3.77-.21,5.69-.89,6.72-4.64,1.16-4.19,2.24-8.29-1.92-11.17a25.47,25.47,0,0,0-8.2-3.4c-17-4.28-34.12-8.32-51.15-12.59-5-1.26-9.42-3.6-11.89-8.6-5.34-10.82.55-22.75,12.67-23.7,10-.78,20.19,0,30.28.4,10.48.38,20.94,1.27,31.42,1.57,14.52.43,26.15-5.72,35.13-16.83a96,96,0,0,0,8.93-13.57c3.11-5.56,2.4-7.46-3.09-11-1.41-.92-2.94-1.64-4.4-2.49-1.17-.68-2.31-1.42-4.4-2.71,10.94.74,21.25,8.28,22.79,17.31a89.73,89.73,0,0,1,.83,22.8c-.79,8.67-7.29,13.56-15.18,15.36-15.46,3.52-31.1,6.23-46.67,9.28l-1.63.32-.16.85c3.86.7,7.7,1.5,11.58,2.08,11.18,1.66,19.6,8,26.9,16,4.48,4.91,4.85,10.76,2.24,16.78-1.33,3-2.83,6-4.28,9.11,9.83,2.24,19.68,4,29.26,6.78,11.57,3.32,22.76,7.66,30.65,17.62,3,3.76,4.17,7.72,3.1,12.53q-8.3,37.5-16.37,75.06c-2.92,13.52-5.86,27-8.54,40.61-1.78,9-7.42,14.94-14.8,19.49-12.84,7.94-27.11,11.51-41.94,13.2A148.93,148.93,0,0,1,922.53,723c-11.79-3.57-21.24-10.87-30.93-17.85-1.21-.87-1.67-3.2-1.92-4.93q-6.4-43-12.67-86.07A5.54,5.54,0,0,0,876.35,612.85Zm23.49-6c0,2.13-.14,3.61,0,5.07,2.73,24.17,5.69,48.32,8.1,72.52.59,5.93,4,7.65,8.62,9.27,20.34,7.18,41.27,8.76,62.54,6.37a106.24,106.24,0,0,0,37-10.77,10.63,10.63,0,0,0,6-8c4.38-20.46,9-40.87,13.56-61.31,1.31-5.9,2.45-11.84,3.83-18.51l-22.23,8.07c2.52-3.92,5.62-6.55,8.46-9.45,9.28-9.46,8.33-16.42-3-23.34s-24.13-8.65-37-10.3c-2-.27-4-1.34-6.78-2.31-7.32,4.75-14.5,12.11-26.41,14.16,1.57-5.1,2.67-8.66,3.87-12.54-3.32.3-6.28.47-9.21.85-13.42,1.75-26.72,4-38.13,12-8.7,6.1-9.39,15.06-2,22.88,2.11,2.24,4.44,4.26,6.68,6.38l-.45,1Z" style="fill:#fff"/><path d="M836.64,668.29c-2.95,2.58-6,4.71-8.4,7.44-11.81,13.52-16.12,36.54,2.22,52.68,17,15,37.57,22.24,59,27.15,51.55,11.8,103,11,153.56-4.89,12.14-3.8,23.91-9.88,34.66-16.77,31.91-20.42,20.77-53.86-3-67.27q-3.06-1.74-6.14-3.46l.6-1.42c3.53,1.29,7.16,2.35,10.57,3.9,15.85,7.25,30.54,16,39.59,31.77,10,17.57,6.62,37.3-8.41,50.84-17.77,16-39.16,24.58-61.71,30.76-47.89,13.11-96.42,14.34-145.31,7-27.19-4.06-53.62-10.89-77.39-25.16a101.75,101.75,0,0,1-22-18c-11.76-12.78-12.82-30.84-4-45.9,8.06-13.82,20.16-22.85,34.61-29.06C835.41,667.78,835.84,668.07,836.64,668.29Z" style="fill:#fff"/><path d="M941.6,575.09c-3.22,6.88.65,8.71,4.71,10.14,14.75,5.19,29.94,5.67,45.32,4,2.13-.22,4.28-.29,8-.53-6.24,5.48-12.44,6.37-18.53,7.43-16.42,2.86-32.72,2.46-48.69-2.64-3.76-1.21-8.63-2.17-8.89-7.22-.29-5.43,4.76-6.53,8.58-8.21C934.68,577,937.43,576.39,941.6,575.09Z" style="fill:#fff"/><text transform="translate(910.09 662.07) scale(0.84 1)" style="font-size:36.36471939086914px;fill:#fff;font-family:CLoisterOpti-Black, CLoisterOpti;letter-spacing:-0.0439905066694707em">Est.1968</text><text transform="translate(264.64 746.19) scale(0.73 1)" style="font-size:73.5135498046875px;fill:#fff;font-family:CLoisterOpti-Black, CLoisterOpti;letter-spacing:-0.02400239469909347em"><tspan xml:space="preserve">of  New York</tspan></text></svg>